<svg id="レイヤー_1" data-name="レイヤー 1" xmlns="http://www.w3.org/2000/svg" viewBox="0 0 694.95 642.77"><defs><style>.cls-1{fill:#fff;}</style></defs><title>crown</title><path class="cls-1" d="M77.06,292.74c-1.25-7-8.25-9.33-14.86-6.85-6.07,2.27-6.81,5.95-6.85,9.14-.34,18.88,24.34,12.33,21.71-2.29M24.48,403.61A22.44,22.44,0,0,1,35.92,415c-2.26,2.7-2.7,7.21-3.44,11.42A22.44,22.44,0,0,1,21.05,415a34.32,34.32,0,0,0,3.43-11.43m38.87,136a72.2,72.2,0,0,1,17.14,14.86c-1.52,7.61-4.41,13.88-5.71,21.71-6.23-4.43-10.12-11.22-17.14-14.86,1.53-7.62,4.42-13.88,5.72-21.72m68.58-18.29c4.67,11.31-8.22,18.66-16,11.43-7-12.21,9-19.87,16-11.43m-3.43,52.58c-7.65-.76-11.42-12.83-3.44-17.14,15-8.09,18.47,18.65,3.44,17.14m74.3-78.87c28.87-4.37,59.15,17.17,37.71,42.3-18,21.13-70.1,19.77-72-10.29-1.29-20.22,17.09-29.41,34.3-32m76.57-4.58c6.3-1.3,9.48,2.29,10.28,5.72,3.19,13.59-17.43,16.79-18.28,3.43-.38-5.84,2.17-7.93,8-9.15m16,46.87c1,9-11.65,14.48-18.28,5.71-3.42-18.44,17.21-15.88,18.28-5.71m56-52.58c7.74,7.49,11.83,18.66,18.29,27.43-4.73,10.89-11.45,19.78-17.14,29.72-6.53-9.1-11.58-19.67-18.29-28.58q8.76-14.12,17.14-28.58m6.86-106.29c.51,3.93-.45,6.4-1.14,9.14-1.33-.18-2,.26-2.29,1.14-15.7,1.69-6.88-20.09,3.43-10.28m57.14,152c5.12-2.14,11.09-.66,12.57,4.57,3.41,12-14.67,18.46-18.28,6.86-2.6-8.36.89-9.42,5.71-11.43m16-25.14c-2.8,2.66-9.66,3-13.71,1.14-14.35-16.76,22.56-24.34,13.71-1.14m26.29,11.43c1.3-11.61,10.71-19,26.29-21.72,21.43-3.81,57.88,7.11,51.43,36.57-6.67,30.55-82.23,25.46-77.72-14.86m123.44,40c6.16,5.35,2,16.93-5.71,17.14-12.48.33-14.51-24.8,5.71-17.14m-4.57-37.72c16.23-8.83,16.29,16,5.72,17.14-5.86.61-17-11-5.72-17.14m48,36.57c1.3-7.59,10.74-10.06,14.87-16,2.73,5.73,7.79,13.67,6.85,19.43-1.24,7.54-11.52,12.49-17.15,16,.56-8.08-5.57-13.44-4.58-19.43m53.73-152c4.36,1.73,2.37,9.83,5.72,12.57-2.45,4.41-7.12,6.61-10.3,10.29-3.09-2.61-3.11-8.31-4.57-12.58,1.35-5.12,7.42-5.53,9.15-10.28M16.48,386.47c-.5,11-6.89,19.9-4.57,32,2,10.35,15.36,18.76,20.57,28.58,3.74,7,6.75,18.86,9.15,28.58,7.2,29.21,8.13,60.16,0,91.43,15.23,15.63,30.26,31.47,48,44.58,136.26-58.16,389.42-57.81,525.78,0,17-14.21,33.69-28.78,48-45.71-8.71-29.56-8.1-56.86-1.14-85.72,2.95-12.27,5.53-27,10.28-35.44,5.15-9.15,14.64-12.17,18.29-20.58,6.44-14.87-3.49-25.33-3.43-40,.05-13,8.51-25,12.57-38.85-18.54-5.46-37.18-10.83-57.15-14.86,7,17,14.54,33.46,21.7,50.29-11.47-7.57-21.38-16.71-33.14-24-5.25,28.66-13.87,60-17.14,86.87,12.74-7.47,27.75-18.73,40-22.86-12.45,33.36-28.4,67.36-67.44,69.72-14.48.88-32.76-4.65-42.3-10.27-19.61-11.57-34.4-54.78-9.15-72,28.47-19.43,50.64,17.5,42.3,48,23.29-10,35.8-36.4,32-62.87-4.57-31.76-44.59-54.39-75.44-35.43,13.84-27.09,13.52-76.46-8-94.87-22.72,18.06-42.06,45.56-35.43,89.16-11.08-8-21.07-16.77-38.87-14.86-18.35,2-31.52,22.48-33.14,38.86-2.14,21.63,9.2,33.6,19.43,42.29,2.52,2.13,6.85,8.92,8,4.57.08-19.59,5.21-33,21.71-33.15,27.34-.17,31.31,40.54,18.3,59.44-11,15.92-38.09,24.58-65.15,20.57-12-1.78-26.23-10.41-34.3-19.43-10.17-11.39-15.09-26.83-18.28-46.87,12.62,5.27,23.17,12.64,35.42,18.29-1.72-27.24-1.82-56.09-2.28-84.58-11.83,6.08-23.21,18.68-33.14,22.86,4.62-20.91,11.9-39.16,16-60.58H319.38c5.59,20.69,11.74,40.84,17.14,61.72-8.44-4.51-17.61-14.28-25.15-19.42-1.81-1.25-6.93-5.29-8-2.29-.74,26.3-3,57.24-1.14,82.29,10.68-5.72,23.3-15.56,34.29-17.15-5,31-23.23,61.07-54.87,65.15-22.64,2.93-47.61-2.65-60.57-17.14-16.8-18.78-12.69-64.16,17.15-62.88,16.92.73,20.61,19.65,20.58,35.43,13.34-10,27.67-23.82,27.42-44.57-.23-20.14-14.67-41.58-34.28-43.44-16.83-1.59-28.71,8.35-37.73,13.72,4.92-41.63-11.57-71.37-36.57-86.86-21.18,17.56-20.37,66.94-8,93.72-6.93-3.37-12-6.12-19.42-6.85-63.64-6.24-72.72,86.62-24,105.16-3.72-30.5,7.86-61.71,37.72-51.44,14.46,5,20,23.35,18.28,40-1.43,13.79-12.11,28.53-21.72,34.29-53.64,32.09-101.75-12.23-109.72-59.44,9.18,5.56,21.65,13,30.86,18.29,2.78,1.58,8.45,7.19,9.15,3.43-5.44-28.47-12.31-55.52-17.14-84.59-12.33,5.6-23.1,18.81-33.15,22.86,6.38-16.48,17-34.85,20.57-50.29A534.32,534.32,0,0,1,5,344.18c3.33,16.48,12.17,26.28,11.44,42.29M257.66,187.59c1.61-14-8.07-19.68-18.28-18.3C227.2,171,224,177.94,224.52,186.44c1.14,19.33,31,20.08,33.14,1.15m248,29.72c21.85.92,21.07-36.35-3.44-29.72-16.46,4.45-12.9,29,3.44,29.72m52.57,0c-1.34-8.8-8.42-12.09-17.14-10.29-10.32,2.13-12,7.6-11.43,14.86,1.37,17.42,32,17.73,28.57-4.57M388,288.17c3.38-28.63,8.94-55.06,21.71-74.3,90,18.19,154.16,62.24,213.74,110.87,2-5.26,7.48-7,9.14-12.57C569,259.54,501.47,210.87,399.38,196.73c-15.73,23.89-23.12,56.12-28.56,90.3,6.45-.36,10.16,2,17.15,1.14M436,167c-.54-1.64-4.31-6.66-3.42-5.71-2.94-3.16-8.9-6.17-17.16-4.58-7.48,1.45-12.66,6.47-13.71,10.29-9.05,33.19,44.11,29.72,34.29,0m44.57,24c4.26-16.08-8-23.25-18.29-21.73-8.31,1.24-12.7,6.3-13.7,9.15-9,25.5,27.33,30.26,32,12.58m60.59,408c-70.84-14.46-161.2-17.63-243.46-13.71-52.5,2.51-111.45,5.05-158.88,18.29-11.26,3.14-35.72,12.58-35.43,22.86.35,12.78,30.45,19.88,48,24,21.46,5,43.05,8.06,62.86,10.28,107.13,12,240.58,12.67,338.33-10.28,16.31-3.84,48.57-10,48-25.15-.58-16.08-42.33-22.79-59.43-26.29M580,257.31c16.58.79,19.92-30.68-2.28-25.15-16.41,4.1-9.58,24.58,2.28,25.15m60.58,49.15c9.35-.66,13.32-13.42,5.71-20.57-21.43-8-21.85,21.73-5.71,20.57m-14.87-40c-1-5.46-5.08-10.55-14.85-8-6.87,1.78-9.37,4.79-9.14,11.43.59,17.95,27.35,14.13,24-3.43M199.37,217.31c18.11-.41,22-36.78-4.57-29.72-19,5.05-10.12,30.05,4.57,29.72m146.3-93.73c5.08,2.16.94,13.52,2.29,19.43-4.38-3.25-9.91-5.34-14.86-8,3.46-4.54,9.54-6.46,12.57-11.43M372,169.29c-9.44,7.45-39.18,10.13-41.16-5.71,13.56-5.16,32.67-1.24,41.16,5.71m-10.29-45.71c5.6,1.63,8.51,6,13.71,8-2.49,5.52-8.55,7.45-13.71,10.29Zm-8,62.86c19-.45,34.41-15,36.58-32,3-23.76-10.52-37.3-29.72-45.72.74-6.49-1.5-16,1.14-20.58,9.81,3.51,17.68,9,28.57,11.43V50.42c-11.14,3.34-17.64,11.32-28.57,14.86,4.72-13.56,11.75-24.81,16-38.86-16.77.75-36.58-1.52-51.44,1.13,6,12.65,11.85,25.48,17.14,38.87-9.71-5.16-18.15-11.56-28.57-16V99.57c10.78-2.54,18.36-8.3,28.57-11.43V111c-44.05,8.15-35.37,76.51,10.29,75.44m-49.15-16c-1.09-9-7.47-16-20.57-13.72-10.25,1.76-14.25,6.88-14.86,14.86-2.16,28.52,38.49,24,35.44-1.15M175.37,215c-2.1-7.2-8.9-9.29-16-8-7.53,1.36-10.72,5.59-11.44,8-7.68,25.95,34.91,25.57,27.44,0m-88,66.28c19.92,5.66,21.38-28.64,1.13-22.85-10.81,3.09-11.58,19.9-1.13,22.85m36.58-24c17.06,1,19.9-30.87-2.29-25.15-16.18,4.19-9.28,24.49,2.29,25.15m224-20.57c-18.11,5.62-4.83,25.92,5.71,25.15,14.25-1,17.41-32.33-5.71-25.15m0,35.43c-14.49,5.66-2.26,20.65,4.57,20.57,13.07-.15,15.37-28.37-4.57-20.57m-45.72-75.44c-91.68,15.72-173.14,63.81-229.74,116.59,3.93,3.31,6.81,7.66,10.29,11.43,59.5-49.08,123.65-93.51,214.88-110.87,10.23,21.39,16.85,46.4,20.57,74.3,6.54.82,10.22-1.22,16-1.14-1.4-17.5-5.07-32.3-10.28-49.15-3.35-10.81-11.59-42.89-21.72-41.15m45.72,0c-19.19,5.23-10.06,30.73,5.71,29.72,19-1.22,18.67-36.36-5.71-29.72" transform="translate(-5.05 -26.23)"/></svg>